<svg width="306" height="48" viewBox="0 0 306 48" fill="none"
  xmlns="http://www.w3.org/2000/svg">
  <g clip-path="url(#clip0_744_43)">
    <path d="M64.6643 44.0402C60.8662 42.0183 57.8853 39.2271 55.715 35.6529C53.5446 32.0856 52.4595 28.069 52.4595 23.603C52.4595 19.1371 53.5446 15.1137 55.715 11.5123C57.8853 7.91776 60.8662 5.10611 64.6643 3.08418C68.4624 1.06906 72.7361 0.0546875 77.4854 0.0546875C82.2347 0.0546875 86.5151 1.06906 90.3065 3.08418C94.1046 5.10611 97.0855 7.91776 99.2559 11.5123C101.426 15.1068 102.511 19.1371 102.511 23.603C102.511 28.069 101.426 32.0788 99.2559 35.6529C97.0855 39.2203 94.1046 42.0183 90.3065 44.0402C86.5084 46.0621 82.2347 47.0697 77.4854 47.0697C72.7361 47.0697 68.4557 46.0621 64.6643 44.0402ZM83.9563 35.1832C85.8922 34.0259 87.406 32.4396 88.4912 30.4177C89.5764 28.3958 90.119 26.1288 90.119 23.603C90.119 21.0773 89.5764 18.7354 88.4912 16.7135C87.406 14.6916 85.8989 13.1053 83.9563 11.948C82.0204 10.7907 79.8634 10.2188 77.4854 10.2188C75.1074 10.2188 72.9505 10.7975 71.0146 11.948C69.0787 13.1053 67.5514 14.6916 66.4461 16.7135C65.3342 18.7354 64.7782 21.0297 64.7782 23.603C64.7782 26.1764 65.3342 28.3958 66.4461 30.4177C67.5581 32.4396 69.0787 34.0259 71.0146 35.1832C72.9505 36.3405 75.1074 36.9124 77.4854 36.9124C79.8634 36.9124 82.0204 36.3337 83.9563 35.1832Z" fill="#B8256E"/>
    <path d="M114.756 41.5349C111.038 37.8451 109.176 32.7664 109.176 26.2921V0.0546875H121.421V25.8905C121.421 29.4714 122.185 32.1741 123.706 33.9918C125.226 35.8095 127.463 36.7218 130.411 36.7218C133.358 36.7218 135.495 35.8095 136.996 33.9918C138.496 32.1741 139.24 29.4714 139.24 25.8905V0.0546875H151.324V26.2853C151.324 32.7596 149.462 37.8383 145.744 41.5281C142.026 45.218 136.862 47.0629 130.25 47.0629C123.639 47.0629 118.474 45.218 114.756 41.5281V41.5349Z" fill="#B8256E"/>
    <path d="M170.151 44.0402C166.38 42.0183 163.412 39.227 161.242 35.6529C159.072 32.0856 157.986 28.069 157.986 23.603C157.986 19.1371 159.072 15.1136 161.242 11.5123C163.412 7.91775 166.38 5.10611 170.151 3.08418C173.922 1.06225 178.156 0.0546875 182.858 0.0546875C187.145 0.0546875 190.85 0.715049 193.978 2.02216C197.099 3.33607 199.799 5.43289 202.076 8.31942L194.172 15.6447C191.225 12.0229 187.614 10.212 183.327 10.212C179.556 10.212 176.441 11.4442 173.989 13.9155C171.538 16.3867 170.312 19.6136 170.312 23.603C170.312 26.2309 170.868 28.5523 171.98 30.5743C173.092 32.5962 174.639 34.1552 176.629 35.2581C178.618 36.3609 180.849 36.9124 183.334 36.9124C187.621 36.9124 191.238 35.1015 194.179 31.4797L202.083 38.805C199.859 41.637 197.16 43.727 193.985 45.0682C190.809 46.4093 187.098 47.0765 182.865 47.0765C178.162 47.0765 173.929 46.0689 170.158 44.047L170.151 44.0402Z" fill="#B8256E"/>
    <path d="M255.309 0.0546875V47.0697H242.87V41.1265C239.641 45.0886 234.966 47.0697 228.843 47.0697C224.61 47.0697 220.785 46.1098 217.362 44.1832C213.939 42.2634 211.253 39.513 209.303 35.9525C207.354 32.3852 206.383 28.2596 206.383 23.5622C206.383 18.8648 207.354 14.7392 209.303 11.1719C211.253 7.60459 213.939 4.86784 217.362 2.94122C220.785 1.0214 224.61 0.0546875 228.843 0.0546875C234.577 0.0546875 239.059 1.89281 242.287 5.56905V0.0546875H255.316H255.309ZM239.28 32.7664C241.45 30.4722 242.535 27.4086 242.535 23.5622C242.535 19.7158 241.45 16.6454 239.28 14.358C237.109 12.0637 234.383 10.92 231.094 10.92C227.805 10.92 224.998 12.0637 222.828 14.358C220.658 16.6522 219.572 19.7158 219.572 23.5622C219.572 27.4086 220.658 30.479 222.828 32.7664C224.998 35.0607 227.751 36.2044 231.094 36.2044C234.437 36.2044 237.103 35.0607 239.28 32.7664Z" fill="#B8256E"/>
    <path d="M305.953 0V47.015H295.496L274.175 21.0975V47.015H261.708V0H272.165L293.487 25.9992V0H305.953Z" fill="#B8256E"/>
    <path d="M16.1436 0.059082H0L10.0881 23.5666H26.2317L16.1436 0.059082Z" fill="#B8256E"/>
    <path d="M52.4581 0.0546875H36.3212L16.145 47.0697H32.2819L52.4581 0.0546875Z" fill="#B8256E"/>
  </g>
  <defs>
    <clipPath id="clip0_744_43">
      <rect width="305.952" height="47.0695" fill="white"/>
    </clipPath>
  </defs>
</svg>
